<?xml version="1.0" encoding="UTF-8" standalone="no"?>
<svg width="25px" height="25px" viewBox="0 0 25 25" version="1.1" xmlns="http://www.w3.org/2000/svg" xmlns:xlink="http://www.w3.org/1999/xlink">
    <!-- Generator: Sketch 3.7.2 (28276) - http://www.bohemiancoding.com/sketch -->
    <title>Group 6</title>
    <desc>Created with Sketch.</desc>
    <defs></defs>
    <g id="Cluster-lists" stroke="none" stroke-width="1" fill="none" fill-rule="evenodd">
        <g id="Cluster-detail-page---All-states" transform="translate(-524.000000, -648.000000)">
            <g id="NormalState" transform="translate(524.000000, 648.000000)">
                <g id="Group-6">
                    <rect id="Rectangle-111" fill="#FF306B" x="0" y="0" width="25" height="25" rx="100"></rect>
                    <path d="M14.0907672,12.4959083 L16.6701333,9.91878993 C16.8828327,9.70665251 17,9.42427092 17,9.1241878 C17,8.82410468 16.8828327,8.54172309 16.6701333,8.3293047 C16.4579959,8.11716729 16.1750524,8.00028098 15.8746883,8.00028098 C15.5743242,8.00028098 15.2916616,8.11716729 15.0792432,8.3293047 L12.4993151,10.906423 L9.91994896,8.3293047 C9.70753057,8.11688631 9.42514898,8 9.12422293,8 C8.82357786,8 8.54147724,8.11688631 8.32905885,8.3293047 C7.89045422,8.76734738 7.89017324,9.48046626 8.32905885,9.91878993 L10.908706,12.4959083 L8.32933983,15.0730266 C7.89045422,15.5110693 7.89045422,16.2241882 8.32933983,16.6627928 C8.54147724,16.8749302 8.82413981,16.9918165 9.12478488,16.9918165 C9.42514898,16.9918165 9.70781155,16.8749302 9.92022994,16.6625118 L12.4995961,14.0853935 L15.0792432,16.6622309 C15.2916616,16.8743683 15.5740432,16.9915356 15.8744073,16.9915356 C16.1750524,16.9915356 16.457715,16.8746493 16.6701333,16.6622309 C17.109019,16.2239072 17.109019,15.5107883 16.6701333,15.0727456 L14.0907672,12.4959083 Z" id="Fill-118" fill="#FFFFFF"></path>
                </g>
            </g>
        </g>
    </g>
</svg>