<?xml version="1.0" encoding="UTF-8" standalone="no"?>
<svg width="25px" height="25px" viewBox="0 0 25 25" version="1.1" xmlns="http://www.w3.org/2000/svg" xmlns:xlink="http://www.w3.org/1999/xlink">
    <!-- Generator: Sketch 3.7.2 (28276) - http://www.bohemiancoding.com/sketch -->
    <title>Group 5</title>
    <desc>Created with Sketch.</desc>
    <defs></defs>
    <g id="Cluster-lists" stroke="none" stroke-width="1" fill="none" fill-rule="evenodd">
        <g id="Cluster-detail-page---All-states" transform="translate(-57.000000, -647.000000)">
            <g id="NormalState" transform="translate(57.000000, 647.000000)">
                <g id="Group-5">
                    <rect id="Rectangle-111" fill="#6FAA57" x="0" y="0" width="25" height="25" rx="100"></rect>
                    <path d="M17.6326606,9.35526207 C17.1589778,8.88157931 16.332072,8.88157931 15.8577619,9.35526207 L11.7254287,13.4875952 L10.1415716,11.9034244 C9.66694769,11.4291142 8.84066928,11.4297416 8.36667282,11.9034244 C7.87793259,12.3924783 7.87761889,13.1883281 8.36667282,13.6780094 L10.838293,16.1496296 C11.0754481,16.386471 11.3904001,16.5169691 11.7254287,16.5169691 C12.0610847,16.5169691 12.3760367,16.386471 12.6128781,16.1496296 L17.6326606,11.1304745 C17.869502,10.8933194 18,10.5780537 18,10.2427114 C18,9.90768284 17.869502,9.59241715 17.6326606,9.35526207 Z" id="Fill-29" fill="#FFFFFF"></path>
                </g>
            </g>
        </g>
    </g>
</svg>