<?xml version="1.0" encoding="UTF-8" standalone="no"?>
<svg width="200px" height="29px" viewBox="0 0 200 29" version="1.1" xmlns="http://www.w3.org/2000/svg" xmlns:xlink="http://www.w3.org/1999/xlink" xmlns:sketch="http://www.bohemiancoding.com/sketch/ns">
    <!-- Generator: Sketch 3.5.2 (25235) - http://www.bohemiancoding.com/sketch -->
    <title>Logo</title>
    <desc>Created with Sketch.</desc>
    <defs></defs>
    <g id="Onboarding" stroke="none" stroke-width="1" fill="none" fill-rule="evenodd" sketch:type="MSPage">
        <g id="ZeroState" sketch:type="MSArtboardGroup" transform="translate(-39.000000, -35.000000)">
            <g id="Logo" sketch:type="MSLayerGroup" transform="translate(39.000000, 35.000000)">
                <path d="M105.148,20.872 C105.076,24.472 103.6,25.084 100.684,25.084 C97.768,25.084 96.22,24.148 96.22,20.332 L96.22,14.356 C96.22,10.54 97.804,9.856 100.684,9.856 C103.42,9.856 105.004,10.468 105.148,13.78 L108.388,13.744 C108.172,8.344 105.364,6.688 100.684,6.688 C95.824,6.688 92.8,8.776 92.8,14.356 L92.8,20.332 C92.8,26.056 95.212,28.36 100.684,28.36 C106.156,28.36 108.316,26.416 108.388,20.872 L105.148,20.872 Z M119.681993,25.372 C116.621993,25.372 115.217993,24.148 115.217993,20.332 L115.217993,14.32 C115.217993,10.504 116.837993,9.748 119.681993,9.748 C122.525993,9.748 124.145993,10.504 124.145993,14.32 L124.145993,20.332 C124.145993,24.148 122.849993,25.372 119.681993,25.372 L119.681993,25.372 Z M119.681993,28.36 C125.261993,28.36 127.565993,26.056 127.565993,20.332 L127.565993,14.32 C127.565993,8.74 124.541993,6.688 119.681993,6.688 C114.821993,6.688 111.797993,8.74 111.797993,14.32 L111.797993,20.332 C111.797993,26.056 113.993993,28.36 119.681993,28.36 L119.681993,28.36 Z M132.199986,28 L135.655986,28 L135.655986,14.284 C135.655986,11.296 137.707986,9.82 140.299986,9.82 C142.783986,9.82 144.403986,11.332 144.403986,14.32 L144.403986,28 L147.859986,28 L147.859986,14.284 C147.859986,8.668 145.519986,6.688 140.875986,6.688 C138.823986,6.688 136.735986,7.12 135.475986,9.172 L135.259986,6.94 L132.199986,6.94 L132.199986,28 Z M152.172781,22.204 C152.172781,26.128 153.720781,28.612 159.300781,28 L159.300781,24.832 C156.492781,25.192 155.520781,24.22 155.520781,22.096 L155.520781,10.288 L159.156781,10.288 L159.156781,7.048 L155.520781,7.048 L155.520781,2.872 L152.172781,3.268 L152.172781,22.204 Z M171.893576,6.94 C169.301576,6.4 166.889576,7.3 165.845576,8.884 L165.701576,6.94 L162.569576,6.94 L162.569576,28.036 L165.989576,28.036 L165.989576,14.5 C165.989576,11.26 168.581576,9.892 171.893576,10.432 L171.893576,6.94 Z M182.038371,25.372 C178.978371,25.372 177.574371,24.148 177.574371,20.332 L177.574371,14.32 C177.574371,10.504 179.194371,9.748 182.038371,9.748 C184.882371,9.748 186.502371,10.504 186.502371,14.32 L186.502371,20.332 C186.502371,24.148 185.206371,25.372 182.038371,25.372 L182.038371,25.372 Z M182.038371,28.36 C187.618371,28.36 189.922371,26.056 189.922371,20.332 L189.922371,14.32 C189.922371,8.74 186.898371,6.688 182.038371,6.688 C177.178371,6.688 174.154371,8.74 174.154371,14.32 L174.154371,20.332 C174.154371,26.056 176.350371,28.36 182.038371,28.36 L182.038371,28.36 Z M194.235165,22.528 C194.235165,26.956 195.639165,28 199.743165,28 L199.743165,24.616 C198.231165,24.616 197.583165,24.184 197.583165,22.492 L197.583165,0.208 L194.235165,0.208 L194.235165,22.528 Z" id="control" fill="#FFFFFF" sketch:type="MSShapeGroup"></path>
                <path d="M0.844,28 L4.3,28 L4.3,14.284 C4.3,11.296 6.352,9.82 8.944,9.82 C11.428,9.82 13.048,11.332 13.048,14.32 L13.048,28 L16.504,28 L16.504,14.284 C16.504,8.668 14.164,6.688 9.52,6.688 C7.468,6.688 5.38,7.12 4.12,9.172 L3.904,6.94 L0.844,6.94 L0.844,28 Z M24.9899929,28 L24.9899929,7.084 L21.5699929,7.084 L21.5699929,28 L24.9899929,28 Z M21.2459929,2.116 C21.2459929,4.852 25.3859929,4.672 25.3859929,2.116 C25.3859929,-0.62 21.2459929,-0.512 21.2459929,2.116 L21.2459929,2.116 Z M30.4519859,28 L33.9079859,28 L33.9079859,14.284 C33.9079859,11.296 35.9599859,9.82 38.5519859,9.82 C41.0359859,9.82 42.6559859,11.332 42.6559859,14.32 L42.6559859,28 L46.1119859,28 L46.1119859,14.284 C46.1119859,8.668 43.7719859,6.688 39.1279859,6.688 C37.0759859,6.688 34.9879859,7.12 33.7279859,9.172 L33.5119859,6.94 L30.4519859,6.94 L30.4519859,28 Z M62.6619788,21.88 C62.6619788,24.04 61.2939788,25.048 58.2699788,25.048 C55.2459788,25.048 53.8779788,24.184 53.8779788,20.44 L53.8779788,18.856 L66.0459788,18.856 L66.0459788,14.356 C66.0459788,8.884 62.9859788,6.832 58.2699788,6.832 C53.4819788,6.832 50.4939788,8.848 50.4939788,14.356 L50.4939788,20.512 C50.4939788,26.164 52.6539788,28.216 58.2699788,28.216 C63.7419788,28.216 65.9739788,25.948 65.9739788,21.88 L62.6619788,21.88 Z M53.8779788,14.356 C53.8779788,10.612 55.5699788,9.856 58.2699788,9.856 C60.9699788,9.856 62.7699788,10.648 62.7699788,14.356 L62.7699788,15.868 L53.8779788,15.868 L53.8779788,14.356 Z M83.8199717,12.88 C83.9279717,8.992 81.6599717,6.688 76.7999717,6.688 C71.8679717,6.688 69.4919717,9.424 69.4919717,13.132 C69.4919717,17.884 73.3799717,18.64 75.9359717,18.82 C78.5279717,19 80.9759717,19.216 80.9759717,21.7 C80.9759717,23.716 79.5359717,25.048 76.9439717,25.048 C74.7479717,25.048 72.9479717,24.148 72.7679717,21.484 L69.3119717,21.484 C69.4919717,25.948 72.1199717,28.18 76.9439717,28.18 C81.2999717,28.18 84.3959717,26.056 84.3959717,21.664 C84.3959717,16.552 80.5799717,16.084 77.3759717,15.796 C74.8199717,15.58 72.9119717,15.616 72.9119717,13.132 C72.9119717,10.864 74.3159717,9.784 76.6919717,9.784 C79.3559717,9.784 80.5439717,10.9 80.5439717,12.88 L83.8199717,12.88 Z" id="nines" fill="#C0C0C0" sketch:type="MSShapeGroup"></path>
            </g>
        </g>
    </g>
</svg>